<svg width="100" height="100" viewBox="0 0 100 100" fill="none" xmlns="http://www.w3.org/2000/svg">
<path fill-rule="evenodd" clip-rule="evenodd" d="M86.5875 13.4122C86.8786 13.7025 87.1095 14.0474 87.267 14.427C87.4245 14.8067 87.5056 15.2137 87.5056 15.6247C87.5056 16.0358 87.4245 16.4428 87.267 16.8224C87.1095 17.2021 86.8786 17.5469 86.5875 17.8372L17.8375 86.5872C17.2508 87.174 16.4549 87.5037 15.625 87.5037C14.7952 87.5037 13.9993 87.174 13.4125 86.5872C12.8257 86.0004 12.4961 85.2046 12.4961 84.3747C12.4961 83.5449 12.8257 82.749 13.4125 82.1622L82.1625 13.4122C82.4528 13.1212 82.7977 12.8903 83.1773 12.7328C83.557 12.5752 83.964 12.4941 84.375 12.4941C84.7861 12.4941 85.1931 12.5752 85.5727 12.7328C85.9524 12.8903 86.2973 13.1212 86.5875 13.4122V13.4122Z" fill="white" fill-opacity="0.87"/>
<path fill-rule="evenodd" clip-rule="evenodd" d="M13.4125 13.4122C13.1215 13.7025 12.8906 14.0474 12.733 14.427C12.5755 14.8067 12.4944 15.2137 12.4944 15.6247C12.4944 16.0358 12.5755 16.4428 12.733 16.8224C12.8906 17.2021 13.1215 17.5469 13.4125 17.8372L82.1625 86.5872C82.7493 87.174 83.5451 87.5037 84.375 87.5037C85.2048 87.5037 86.0007 87.174 86.5875 86.5872C87.1743 86.0004 87.5039 85.2046 87.5039 84.3747C87.5039 83.5449 87.1743 82.749 86.5875 82.1622L17.8375 13.4122C17.5472 13.1212 17.2023 12.8903 16.8227 12.7328C16.443 12.5752 16.036 12.4941 15.625 12.4941C15.2139 12.4941 14.8069 12.5752 14.4273 12.7328C14.0476 12.8903 13.7028 13.1212 13.4125 13.4122V13.4122Z" fill="white" fill-opacity="0.87"/>
</svg>
