<svg width="375" height="375" viewBox="0 0 375 375" fill="none" xmlns="http://www.w3.org/2000/svg">
<g clip-path="url(#clip0_217_367)">
<path d="M254.508 137.824C254.414 137.449 254.274 137.094 254.121 136.75L253.887 136.23L253.602 135.754C252.828 134.488 251.809 133.516 250.758 132.82C250.5 132.629 250.227 132.492 249.965 132.332L249.566 132.098L249.16 131.91C248.891 131.785 248.621 131.656 248.352 131.543L247.539 131.242C245.379 130.465 243.227 130.164 241.106 129.977C238.981 129.82 236.883 129.824 234.797 129.984C236.801 130.586 238.774 131.199 240.66 131.949C241.606 132.316 242.527 132.715 243.41 133.152C243.852 133.371 244.274 133.613 244.699 133.836L245.309 134.207C245.516 134.328 245.715 134.453 245.899 134.59L246.461 134.988C246.641 135.125 246.805 135.273 246.977 135.414L247.227 135.625L247.453 135.848C247.598 136 247.766 136.133 247.887 136.289C248.438 136.887 248.77 137.523 248.922 138.094C249.059 138.676 249.086 139.184 248.926 139.738C248.797 140.285 248.496 140.887 248.102 141.5C247.305 142.738 246.074 144 244.691 145.145C243.297 146.293 241.781 147.395 240.164 148.406C236.934 150.434 233.461 152.25 229.902 153.93C222.77 157.273 215.301 160.121 207.738 162.703C200.172 165.281 192.484 167.57 184.731 169.637C179.289 171.078 173.816 172.414 168.32 173.621C166.231 169.914 165.059 165.406 165.059 160.445V160.062C165.059 147.535 173.586 137.285 185.145 137.285C193.863 137.285 199.359 141.273 204.285 148.105L228.731 129.883C220.012 116.027 205.992 106.914 184.957 106.914C152.555 106.914 130.004 131.402 130.004 160.445V160.824C130.004 167.191 131.098 173.324 133.129 179.027C130.715 179.184 128.305 179.273 125.922 179.27C123.981 179.273 122.059 179.168 120.184 178.992C118.305 178.82 116.477 178.508 114.801 178.031C113.129 177.566 111.617 176.863 110.691 175.977C110.227 175.535 109.887 175.043 109.695 174.426C109.512 173.816 109.469 173.066 109.606 172.242C109.734 171.422 110.066 170.562 110.449 169.699C110.836 168.832 111.34 167.984 111.887 167.148C112.984 165.465 114.293 163.863 115.66 162.281C113.813 163.262 112.047 164.414 110.379 165.785C109.551 166.477 108.75 167.227 108.016 168.086C107.274 168.941 106.594 169.895 106.063 171.027C105.539 172.152 105.16 173.484 105.199 174.922C105.223 176.359 105.691 177.84 106.43 179.059C107.164 180.293 108.133 181.273 109.125 182.082C110.125 182.891 111.168 183.547 112.223 184.117C116.473 186.309 120.816 187.332 125.125 188.078C129.434 188.812 133.734 189.133 138.012 189.254C146.566 189.477 155.039 188.836 163.41 187.68C171.781 186.52 180.047 184.805 188.184 182.637C196.32 180.461 204.348 177.828 212.188 174.645C220.024 171.453 227.695 167.758 234.984 163.172C238.621 160.871 242.176 158.367 245.496 155.406C247.149 153.922 248.77 152.348 250.25 150.551C250.988 149.648 251.695 148.695 252.348 147.66C252.996 146.621 253.613 145.516 254.066 144.254C254.516 142.996 254.856 141.598 254.828 140.082C254.824 139.336 254.719 138.562 254.508 137.824Z" fill="#02083E"/>
<path d="M213.91 180.336C206.07 183.52 198.043 186.152 189.906 188.328C181.766 190.496 173.5 192.211 165.133 193.371C157.559 194.418 149.898 195.039 142.172 194.984C151.801 206.648 166.453 214.164 183.629 214.164C206.18 214.164 219.824 204.672 229.297 190.625L214.68 180.02C214.422 180.125 214.168 180.23 213.91 180.336Z" fill="#02083E"/>
<path d="M195.508 161.715C195.508 162.039 195.492 162.367 195.461 162.684C191.426 163.941 187.359 165.109 183.266 166.195C181.484 166.672 179.695 167.129 177.902 167.574C176.684 165.937 175.961 163.91 175.961 161.715C175.961 156.309 180.336 151.926 185.734 151.926C191.133 151.926 195.508 156.309 195.508 161.715Z" fill="#5CE1E6"/>
<path d="M126.52 229.588H130.252V231H124.762V222.469H126.52V229.588ZM136.398 227.303H133.023V229.588H136.984V231H131.266V222.469H136.973V223.893H133.023V225.926H136.398V227.303ZM142.832 229.242H139.75L139.164 231H137.295L140.471 222.469H142.1L145.293 231H143.424L142.832 229.242ZM140.225 227.818H142.357L141.285 224.625L140.225 227.818ZM149.248 227.877H147.848V231H146.09V222.469H149.26C150.268 222.469 151.045 222.693 151.592 223.143C152.139 223.592 152.412 224.227 152.412 225.047C152.412 225.629 152.285 226.115 152.031 226.506C151.781 226.893 151.4 227.201 150.889 227.432L152.734 230.918V231H150.848L149.248 227.877ZM147.848 226.453H149.266C149.707 226.453 150.049 226.342 150.291 226.119C150.533 225.893 150.654 225.582 150.654 225.188C150.654 224.785 150.539 224.469 150.309 224.238C150.082 224.008 149.732 223.893 149.26 223.893H147.848V226.453ZM160.691 231H158.934L155.512 225.387V231H153.754V222.469H155.512L158.939 228.094V222.469H160.691V231ZM167.359 227.303H163.984V229.588H167.945V231H162.227V222.469H167.934V223.893H163.984V225.926H167.359V227.303ZM172.135 227.877H170.734V231H168.977V222.469H172.146C173.154 222.469 173.932 222.693 174.479 223.143C175.025 223.592 175.299 224.227 175.299 225.047C175.299 225.629 175.172 226.115 174.918 226.506C174.668 226.893 174.287 227.201 173.775 227.432L175.621 230.918V231H173.734L172.135 227.877ZM170.734 226.453H172.152C172.594 226.453 172.936 226.342 173.178 226.119C173.42 225.893 173.541 225.582 173.541 225.188C173.541 224.785 173.426 224.469 173.195 224.238C172.969 224.008 172.619 223.893 172.146 223.893H170.734V226.453ZM177.016 225.088L176.219 224.625C176.555 224.098 176.729 223.553 176.74 222.99V222H178.088V222.908C178.088 223.26 177.99 223.641 177.795 224.051C177.6 224.461 177.34 224.807 177.016 225.088ZM183.818 228.762C183.818 228.43 183.701 228.176 183.467 228C183.232 227.82 182.811 227.633 182.201 227.438C181.592 227.238 181.109 227.043 180.754 226.852C179.785 226.328 179.301 225.623 179.301 224.736C179.301 224.275 179.43 223.865 179.688 223.506C179.949 223.143 180.322 222.859 180.807 222.656C181.295 222.453 181.842 222.352 182.447 222.352C183.057 222.352 183.6 222.463 184.076 222.686C184.553 222.904 184.922 223.215 185.184 223.617C185.449 224.02 185.582 224.477 185.582 224.988H183.824C183.824 224.598 183.701 224.295 183.455 224.08C183.209 223.861 182.863 223.752 182.418 223.752C181.988 223.752 181.654 223.844 181.416 224.027C181.178 224.207 181.059 224.445 181.059 224.742C181.059 225.02 181.197 225.252 181.475 225.439C181.756 225.627 182.168 225.803 182.711 225.967C183.711 226.268 184.439 226.641 184.896 227.086C185.354 227.531 185.582 228.086 185.582 228.75C185.582 229.488 185.303 230.068 184.744 230.49C184.186 230.908 183.434 231.117 182.488 231.117C181.832 231.117 181.234 230.998 180.695 230.76C180.156 230.518 179.744 230.188 179.459 229.77C179.178 229.352 179.037 228.867 179.037 228.316H180.801C180.801 229.258 181.363 229.729 182.488 229.729C182.906 229.729 183.232 229.645 183.467 229.477C183.701 229.305 183.818 229.066 183.818 228.762ZM196.463 228.158C196.396 229.076 196.057 229.799 195.443 230.326C194.834 230.854 194.029 231.117 193.029 231.117C191.936 231.117 191.074 230.75 190.445 230.016C189.82 229.277 189.508 228.266 189.508 226.98V226.459C189.508 225.639 189.652 224.916 189.941 224.291C190.23 223.666 190.643 223.188 191.178 222.855C191.717 222.52 192.342 222.352 193.053 222.352C194.037 222.352 194.83 222.615 195.432 223.143C196.033 223.67 196.381 224.41 196.475 225.363H194.717C194.674 224.812 194.52 224.414 194.254 224.168C193.992 223.918 193.592 223.793 193.053 223.793C192.467 223.793 192.027 224.004 191.734 224.426C191.445 224.844 191.297 225.494 191.289 226.377V227.021C191.289 227.943 191.428 228.617 191.705 229.043C191.986 229.469 192.428 229.682 193.029 229.682C193.572 229.682 193.977 229.559 194.242 229.312C194.512 229.062 194.666 228.678 194.705 228.158H196.463ZM204.625 226.928C204.625 227.768 204.477 228.504 204.18 229.137C203.883 229.77 203.457 230.258 202.902 230.602C202.352 230.945 201.719 231.117 201.004 231.117C200.297 231.117 199.666 230.947 199.111 230.607C198.557 230.268 198.127 229.783 197.822 229.154C197.518 228.521 197.363 227.795 197.359 226.975V226.553C197.359 225.713 197.51 224.975 197.811 224.338C198.115 223.697 198.543 223.207 199.094 222.867C199.648 222.523 200.281 222.352 200.992 222.352C201.703 222.352 202.334 222.523 202.885 222.867C203.439 223.207 203.867 223.697 204.168 224.338C204.473 224.975 204.625 225.711 204.625 226.547V226.928ZM202.844 226.541C202.844 225.646 202.684 224.967 202.363 224.502C202.043 224.037 201.586 223.805 200.992 223.805C200.402 223.805 199.947 224.035 199.627 224.496C199.307 224.953 199.145 225.625 199.141 226.512V226.928C199.141 227.799 199.301 228.475 199.621 228.955C199.941 229.436 200.402 229.676 201.004 229.676C201.594 229.676 202.047 229.445 202.363 228.984C202.68 228.52 202.84 227.844 202.844 226.957V226.541ZM212.84 231H211.082L207.66 225.387V231H205.902V222.469H207.66L211.088 228.094V222.469H212.84V231ZM221.312 231H219.555L216.133 225.387V231H214.375V222.469H216.133L219.561 228.094V222.469H221.312V231ZM227.98 227.303H224.605V229.588H228.566V231H222.848V222.469H228.555V223.893H224.605V225.926H227.98V227.303ZM236.295 228.158C236.229 229.076 235.889 229.799 235.275 230.326C234.666 230.854 233.861 231.117 232.861 231.117C231.768 231.117 230.906 230.75 230.277 230.016C229.652 229.277 229.34 228.266 229.34 226.98V226.459C229.34 225.639 229.484 224.916 229.773 224.291C230.062 223.666 230.475 223.188 231.01 222.855C231.549 222.52 232.174 222.352 232.885 222.352C233.869 222.352 234.662 222.615 235.264 223.143C235.865 223.67 236.213 224.41 236.307 225.363H234.549C234.506 224.812 234.352 224.414 234.086 224.168C233.824 223.918 233.424 223.793 232.885 223.793C232.299 223.793 231.859 224.004 231.566 224.426C231.277 224.844 231.129 225.494 231.121 226.377V227.021C231.121 227.943 231.26 228.617 231.537 229.043C231.818 229.469 232.26 229.682 232.861 229.682C233.404 229.682 233.809 229.559 234.074 229.312C234.344 229.062 234.498 228.678 234.537 228.158H236.295ZM243.695 223.893H241.082V231H239.324V223.893H236.746V222.469H243.695V223.893Z" fill="#000957"/>
</g>
<defs>
<clipPath id="clip0_217_367">
<rect width="375" height="375" fill="white"/>
</clipPath>
</defs>
</svg>
